<?xml version="1.0" encoding="utf-8"?>
<!-- Generator: Adobe Illustrator 17.0.0, SVG Export Plug-In . SVG Version: 6.00 Build 0)  -->
<!DOCTYPE svg PUBLIC "-//W3C//DTD SVG 1.1//EN" "http://www.w3.org/Graphics/SVG/1.1/DTD/svg11.dtd">
<svg version="1.1" id="Layer_1" xmlns="http://www.w3.org/2000/svg" xmlns:xlink="http://www.w3.org/1999/xlink" x="0px" y="0px"
	 width="130px" height="30px" viewBox="0 0 130 30" enable-background="new 0 0 130 30" xml:space="preserve">
<linearGradient id="SVGID_1_" gradientUnits="userSpaceOnUse" x1="15.5298" y1="3.2551" x2="27.5765" y2="22.9433">
	<stop  offset="0" style="stop-color:#FFDC3B"/>
	<stop  offset="0.1425" style="stop-color:#FDD83A"/>
	<stop  offset="0.287" style="stop-color:#F9CC38"/>
	<stop  offset="0.4326" style="stop-color:#F1B735"/>
	<stop  offset="0.5789" style="stop-color:#E79B30"/>
	<stop  offset="0.7258" style="stop-color:#D9762B"/>
	<stop  offset="0.8711" style="stop-color:#C84A23"/>
	<stop  offset="1" style="stop-color:#B71C1C"/>
</linearGradient>
<path fill="url(#SVGID_1_)" d="M19.381,17.887L19.381,17.887l-3.659-2.113l0-4.225l-1.83,1.056l0,4.225l3.66,2.113L19.381,17.887
	L19.381,17.887L19.381,17.887L19.381,17.887z M26.7,5.211v2.113l-7.294-4.21l1.834-1.059l3.658,2.113l1.812-1.061l-5.47-3.158
	L10.293,6.269v12.64L21.24,25.23l10.947-6.322v-6.331l-1.824,1.068v4.209l-1.836,1.059l0.002-8.421l1.83,1.056l1.828-1.058V6.267
	l-3.658-2.111L26.7,5.211z M21.24,23.123l-9.123-5.268V7.322l3.604-2.081v5.252h1.83v4.227l3.66,2.111v0.002l-0.915,1.585
	l4.549,2.626L21.24,23.123z M23.04,13.663l-0.915,1.583l-2.745-1.583v-3.171h1.83v2.114L23.04,13.663z M26.7,11.55l-0.002,8.421
	l-0.024,0.015l-3.634-2.098L26.7,11.55l-1.83,1.056l-1.83-1.056V9.436l1.83-1.056h-7.319V4.185l0.026-0.015l7.294,4.21l1.83,1.057
	V11.55z M30.359,9.438l-1.83-1.058V6.267l1.828,1.056L30.359,9.438z"/>
<g>
	<path fill="#414042" d="M44.495,18.862v-5.002h-5.062v5.002h-3.207V6.257h3.207v4.901h5.062V6.257h3.207v12.605H44.495z"/>
	<path fill="#414042" d="M51.029,18.862v-9.66h7.543v2.259h-4.679v1.513h3.892v2.097h-3.892v1.533h4.679v2.259H51.029z"/>
	<path fill="#414042" d="M64.03,18.862h-3.328l3.288-4.82l-3.187-4.84h3.408l1.613,2.924l1.694-2.924h3.348l-3.207,4.739
		l3.287,4.921h-3.388l-1.754-3.086L64.03,18.862z"/>
	<path fill="#414042" d="M83.395,18.862H80.39l-0.625-1.795h-3.308l-0.545,1.795h-3.066l3.308-9.66h3.993L83.395,18.862z
		 M78.111,11.259l-1.17,3.772h2.339L78.111,11.259z"/>
	<path fill="#414042" d="M92.714,12.146c-0.31-0.188-0.676-0.343-1.099-0.464c-0.424-0.121-0.83-0.182-1.22-0.182
		c-0.726,0-1.291,0.226-1.694,0.678s-0.605,1.056-0.605,1.812c0,0.783,0.192,1.404,0.575,1.863c0.383,0.459,0.958,0.688,1.724,0.688
		c0.457,0,0.884-0.057,1.281-0.171c0.397-0.114,0.79-0.286,1.18-0.514l0.666,2.642c-0.175,0.094-0.39,0.178-0.645,0.252
		c-0.256,0.074-0.531,0.141-0.827,0.202c-0.296,0.06-0.598,0.107-0.907,0.141c-0.31,0.033-0.605,0.05-0.887,0.05
		c-1.614,0-2.894-0.427-3.842-1.28c-0.948-0.854-1.422-2.121-1.422-3.802c0-0.78,0.121-1.486,0.363-2.118
		c0.242-0.632,0.592-1.17,1.049-1.614c0.457-0.444,1.022-0.787,1.694-1.029c0.672-0.242,1.432-0.363,2.279-0.363
		c0.618,0,1.2,0.063,1.745,0.19c0.545,0.127,1.052,0.284,1.523,0.47L92.714,12.146z"/>
	<path fill="#414042" d="M105.989,14.002c0,0.78-0.138,1.489-0.413,2.128c-0.276,0.639-0.652,1.18-1.13,1.623
		c-0.478,0.444-1.032,0.787-1.664,1.029c-0.632,0.242-1.311,0.363-2.037,0.363s-1.402-0.108-2.027-0.322
		c-0.625-0.215-1.173-0.535-1.644-0.958c-0.471-0.424-0.84-0.951-1.109-1.583c-0.269-0.632-0.403-1.372-0.403-2.219
		c0-0.793,0.138-1.506,0.414-2.138c0.275-0.632,0.652-1.17,1.129-1.614c0.477-0.444,1.032-0.783,1.664-1.018
		c0.632-0.235,1.304-0.353,2.017-0.353c0.726,0,1.405,0.104,2.037,0.313c0.632,0.209,1.183,0.524,1.654,0.948
		c0.47,0.424,0.84,0.951,1.109,1.583C105.854,12.416,105.989,13.155,105.989,14.002z M102.943,14.062c0-0.84-0.182-1.52-0.545-2.041
		c-0.363-0.521-0.915-0.782-1.654-0.782c-0.726,0-1.267,0.258-1.623,0.772c-0.357,0.515-0.535,1.178-0.535,1.991
		c0,0.84,0.185,1.523,0.555,2.052c0.37,0.528,0.924,0.792,1.664,0.792c0.726,0,1.264-0.261,1.614-0.782
		C102.769,15.542,102.943,14.875,102.943,14.062z"/>
	<path fill="#414042" d="M115.564,9.202h2.803v9.761h-3.217l-3.579-5.526v5.425h-2.804v-9.66h3.236l3.581,5.445L115.564,9.202z"/>
	<path fill="#B71C1C" d="M103.88,25.767c0,0.896,0.235,1.597,0.705,2.102c0.47,0.506,1.102,0.759,1.894,0.759
		c0.296,0,0.573-0.032,0.832-0.095c0.259-0.063,0.489-0.148,0.689-0.254v-1.569h-1.918v-1.11h3.107v3.411
		c-0.402,0.242-0.846,0.419-1.332,0.529c-0.486,0.11-0.951,0.166-1.395,0.166c-0.56,0-1.075-0.09-1.546-0.269
		c-0.47-0.18-0.874-0.436-1.213-0.769c-0.338-0.333-0.6-0.742-0.785-1.229c-0.185-0.486-0.277-1.03-0.277-1.633
		c0-0.603,0.093-1.144,0.277-1.625c0.185-0.481,0.447-0.893,0.785-1.237c0.338-0.343,0.742-0.607,1.213-0.793
		c0.47-0.185,0.985-0.277,1.546-0.277c0.454,0,0.917,0.056,1.387,0.166c0.47,0.111,0.869,0.267,1.197,0.468l-0.412,1.126
		c-0.307-0.206-0.648-0.366-1.022-0.48c-0.375-0.113-0.753-0.17-1.134-0.17c-0.782,0-1.411,0.248-1.886,0.743
		C104.118,24.224,103.88,24.904,103.88,25.767z"/>
	<path fill="#B71C1C" d="M118.724,25.759c0,0.571-0.095,1.096-0.285,1.577c-0.19,0.481-0.455,0.898-0.793,1.252
		c-0.338,0.354-0.74,0.629-1.205,0.824c-0.465,0.195-0.973,0.293-1.522,0.293c-0.55,0-1.057-0.09-1.522-0.269
		c-0.465-0.18-0.867-0.439-1.205-0.777c-0.338-0.338-0.602-0.748-0.793-1.228c-0.19-0.481-0.286-1.023-0.286-1.625
		c0-0.571,0.095-1.096,0.286-1.577c0.19-0.481,0.452-0.896,0.785-1.244c0.333-0.349,0.734-0.621,1.205-0.817
		c0.47-0.195,0.98-0.293,1.53-0.293c0.549,0,1.057,0.09,1.522,0.269c0.465,0.18,0.866,0.436,1.205,0.769
		c0.338,0.333,0.602,0.74,0.793,1.221C118.629,24.616,118.724,25.157,118.724,25.759z M117.456,25.807
		c0-0.867-0.235-1.559-0.703-2.077c-0.469-0.518-1.088-0.777-1.857-0.777c-0.369,0-0.709,0.066-1.019,0.198
		c-0.311,0.132-0.577,0.322-0.798,0.571c-0.221,0.248-0.393,0.544-0.514,0.887c-0.121,0.344-0.182,0.727-0.182,1.149
		c0,0.877,0.234,1.575,0.703,2.093c0.469,0.518,1.088,0.777,1.857,0.777c0.758,0,1.367-0.256,1.825-0.769
		C117.227,27.347,117.456,26.663,117.456,25.807z"/>
</g>
</svg>
